<svg width="32" height="32" viewBox="0 0 32 32" fill="none" xmlns="http://www.w3.org/2000/svg">
<path fill-rule="evenodd" clip-rule="evenodd" d="M16 32c8.837 0 16-7.163 16-16S24.837 0 16 0 0 7.163 0 16s7.163 16 16 16zm3.75-21.01h-1.37c-1.073 0-1.28.528-1.281 1.299v1.837h2.423l-.332 2.666H17.1V23.5h-2.671v-6.709H12.25v-2.666h2.179v-2.1c0-2.283 1.352-3.525 3.326-3.525.946 0 1.759.073 1.995.106v2.385z" fill="#333"></path>
            <path fill-rule="evenodd" clip-rule="evenodd" d="M16 32c8.837 0 16-7.163 16-16S24.837 0 16 0 0 7.163 0 16s7.163 16 16 16zm3.75-21.01h-1.37c-1.073 0-1.28.528-1.281 1.299v1.837h2.423l-.332 2.666H17.1V23.5h-2.671v-6.709H12.25v-2.666h2.179v-2.1c0-2.283 1.352-3.525 3.326-3.525.946 0 1.759.073 1.995.106v2.385z" fill="url(#fb_g)"></path>
            <defs>
                <linearGradient id="fb_g" x1="32" x2="-.367" y2=".376" gradientUnits="userSpaceOnUse">
                    <stop stop-color="#ECD3AB"></stop>
                    <stop offset=".513" stop-color="#A4866A"></stop>
                    <stop offset="1" stop-color="#FEFCE9"></stop>
                </linearGradient>
            </defs>
</svg>
