<svg width="32" height="32" viewBox="0 0 32 32" fill="none" xmlns="http://www.w3.org/2000/svg">
<path fill-rule="evenodd" clip-rule="evenodd" d="M16 32C24.8366 32 32 24.8366 32 16C32 7.16344 24.8366 0 16 0C7.16344 0 0 7.16344 0 16C0 24.8366 7.16344 32 16 32ZM19.75 10.9906H18.3807C17.3071 10.9906 17.0996 11.5181 17.099 12.2887V14.1256H19.5219L19.19 16.7919H17.0996V23.5H14.4286V16.7913H12.25V14.125H14.4286V12.0244C14.4286 9.74187 15.781 8.5 17.7552 8.5C18.7013 8.5 19.5138 8.57312 19.75 8.60563V10.9906Z" fill="#333333"/>
<path fill-rule="evenodd" clip-rule="evenodd" d="M16 32C24.8366 32 32 24.8366 32 16C32 7.16344 24.8366 0 16 0C7.16344 0 0 7.16344 0 16C0 24.8366 7.16344 32 16 32ZM19.75 10.9906H18.3807C17.3071 10.9906 17.0996 11.5181 17.099 12.2887V14.1256H19.5219L19.19 16.7919H17.0996V23.5H14.4286V16.7913H12.25V14.125H14.4286V12.0244C14.4286 9.74187 15.781 8.5 17.7552 8.5C18.7013 8.5 19.5138 8.57312 19.75 8.60563V10.9906Z" fill="url(#paint0_linear_243_1476)"/>
<defs>
<linearGradient id="paint0_linear_243_1476" x1="32" y1="-3.33739e-05" x2="-0.367119" y2="0.37571" gradientUnits="userSpaceOnUse">
<stop stop-color="#ECD3AB"/>
<stop offset="0.513383" stop-color="#A4866A"/>
<stop offset="1" stop-color="#FEFCE9"/>
</linearGradient>
</defs>
</svg>
