<svg width="32" height="32" viewBox="0 0 32 32" fill="none" xmlns="http://www.w3.org/2000/svg">
<path d="M17.8 28C23.5736 27.1266 28 22.1168 28 16.0674C28 9.40275 22.6274 4 16 4C9.37258 4 4 9.40275 4 16.0674C4 22.1168 8.42649 27.1266 14.2 28L14.2 19.6876H12.4C11.4059 19.6876 10.6 18.8772 10.6 17.8775C10.6 16.8778 11.4059 16.0674 12.4 16.0674H14.2V13.6539C14.2 11.3213 16.0804 9.43033 18.4 9.43033H19C19.9941 9.43033 20.8 10.2407 20.8 11.2404C20.8 12.2401 19.9941 13.0505 19 13.0505H18.4C18.0687 13.0505 17.8 13.3207 17.8 13.6539V16.0674H19.6C20.5941 16.0674 21.4 16.8778 21.4 17.8775C21.4 18.8772 20.5941 19.6876 19.6 19.6876H17.8V28Z" fill="url(#paint0_linear_175_2200)"/>
<defs>
<linearGradient id="paint0_linear_175_2200" x1="28" y1="3.99997" x2="3.72466" y2="4.28178" gradientUnits="userSpaceOnUse">
<stop stop-color="#ECD3AB"/>
<stop offset="0.513383" stop-color="#A4866A"/>
<stop offset="1" stop-color="#FEFCE9"/>
</linearGradient>
</defs>
</svg>
