<svg width="32" height="32" viewBox="0 0 32 32" fill="none" xmlns="http://www.w3.org/2000/svg">
<path fill-rule="evenodd" clip-rule="evenodd" d="M16 32c8.837 0 16-7.163 16-16S24.837 0 16 0 0 7.163 0 16s7.163 16 16 16zm.003-22.875c-1.792 0-2.021.008-2.73.039-.728.032-1.24.15-1.69.325a3.5 3.5 0 0 0-1.268.827c-.363.357-.644.79-.824 1.265-.174.45-.292.96-.324 1.687-.034.713-.042.942-.042 2.733 0 1.792.008 2.02.039 2.73.032.727.15 1.24.325 1.688.182.48.464.91.826 1.268.358.363.791.645 1.267.824.45.174.96.293 1.688.325.71.031.938.039 2.73.039s2.02-.008 2.73-.039c.728-.032 1.24-.15 1.69-.325a3.655 3.655 0 0 0 2.09-2.091c.175-.45.294-.96.326-1.689.031-.71.039-.938.039-2.73 0-1.79-.003-2.02-.034-2.73-.032-.727-.15-1.239-.325-1.688-.181-.48-.46-.91-.827-1.268a3.527 3.527 0 0 0-1.265-.824c-.451-.174-.96-.292-1.688-.324-.712-.034-.942-.042-2.733-.042zm5.686 1.19l.002.002-.201.198.197-.202.002.002zM10.316 21.687l-.002-.001.201-.198-.198.2h-.002zm0-11.371l.001-.002.198.201-.202-.197.002-.002zM12.742 16a3.257 3.257 0 1 1 6.515.001A3.257 3.257 0 0 1 12.743 16zm5.786-3.982a1.447 1.447 0 1 1 2.895 0 1.447 1.447 0 0 1-2.895 0z" fill="#333"></path>
            <path fill-rule="evenodd" clip-rule="evenodd" d="M16 32c8.837 0 16-7.163 16-16S24.837 0 16 0 0 7.163 0 16s7.163 16 16 16zm.003-22.875c-1.792 0-2.021.008-2.73.039-.728.032-1.24.15-1.69.325a3.5 3.5 0 0 0-1.268.827c-.363.357-.644.79-.824 1.265-.174.45-.292.96-.324 1.687-.034.713-.042.942-.042 2.733 0 1.792.008 2.02.039 2.73.032.727.15 1.24.325 1.688.182.48.464.91.826 1.268.358.363.791.645 1.267.824.45.174.96.293 1.688.325.71.031.938.039 2.73.039s2.02-.008 2.73-.039c.728-.032 1.24-.15 1.69-.325a3.655 3.655 0 0 0 2.09-2.091c.175-.45.294-.96.326-1.689.031-.71.039-.938.039-2.73 0-1.79-.003-2.02-.034-2.73-.032-.727-.15-1.239-.325-1.688-.181-.48-.46-.91-.827-1.268a3.527 3.527 0 0 0-1.265-.824c-.451-.174-.96-.292-1.688-.324-.712-.034-.942-.042-2.733-.042zm5.686 1.19l.002.002-.201.198.197-.202.002.002zM10.316 21.687l-.002-.001.201-.198-.198.2h-.002zm0-11.371l.001-.002.198.201-.202-.197.002-.002zM12.742 16a3.257 3.257 0 1 1 6.515.001A3.257 3.257 0 0 1 12.743 16zm5.786-3.982a1.447 1.447 0 1 1 2.895 0 1.447 1.447 0 0 1-2.895 0z" fill="url(#insdsf)"></path>
            <defs>
                <linearGradient id="insdsf" x1="32" x2="-.367" y2=".376" gradientUnits="userSpaceOnUse">
                    <stop stop-color="#ECD3AB"></stop>
                    <stop offset=".513" stop-color="#A4866A"></stop>
                    <stop offset="1" stop-color="#FEFCE9"></stop>
                </linearGradient>
            </defs>
</svg>
