<svg width="101" height="28" viewBox="0 0 101 28" fill="none" xmlns="http://www.w3.org/2000/svg">
<path fill-rule="evenodd" clip-rule="evenodd" d="M52.3531 17.0775C53.2437 17.6175 53.6881 18.33 53.6881 19.2131H53.6862C53.6862 20.1956 53.3019 21.0056 52.535 21.6431C51.7681 22.2806 50.7031 22.5994 49.3419 22.5994C48.1644 22.5994 47.0356 22.335 45.9556 21.8081C44.8756 21.2812 44.18 20.8612 43.8669 20.5481C43.5537 20.2369 43.3119 19.9819 43.1394 19.785L39.7344 23.1712L40.1581 23.6306C40.4037 23.925 40.8087 24.2869 41.3731 24.7163C41.9375 25.1456 42.59 25.5694 43.3325 25.9856C44.075 26.4019 45.02 26.7619 46.1675 27.0619C47.315 27.3637 48.5037 27.5137 49.73 27.5137C52.8462 27.5137 55.2912 26.7412 57.065 25.1944C58.8369 23.6494 59.7237 21.6544 59.7237 19.2131C59.7237 17.4825 59.2756 16.0538 58.3794 14.925C57.485 13.7963 56.3956 12.9862 55.1131 12.495C53.8306 12.0037 52.5537 11.5744 51.2844 11.2069C50.015 10.8394 48.9331 10.3894 48.0444 9.855C47.1537 9.32062 46.7094 8.61188 46.7094 7.72875C46.7094 6.94313 47.0375 6.27375 47.6937 5.7225C48.35 5.16938 49.2181 4.89375 50.2981 4.89375C51.1944 4.89375 52.0644 5.10375 52.9119 5.52C53.7575 5.93813 54.3125 6.27187 54.5769 6.52312C54.8412 6.77625 55.0456 6.98625 55.1937 7.15875L58.58 3.57L58.2481 3.2025C58.0381 2.94375 57.6912 2.64 57.2075 2.29125C56.7237 1.94063 56.1594 1.5975 55.5144 1.26C54.8712 0.9225 54.0444 0.628124 53.0394 0.376874C52.0325 0.125624 50.99 0 49.91 0C47.1744 0 44.9506 0.753751 43.2388 2.26313C41.5269 3.77063 40.6719 5.59313 40.6719 7.72875C40.6719 9.45938 41.12 10.8881 42.0162 12.0169C42.9125 13.1456 43.9962 13.9556 45.2656 14.4469C46.5369 14.9381 47.8119 15.3637 49.0944 15.7256C50.3769 16.0875 51.4625 16.5375 52.3531 17.0775ZM9.79125 26.9433L0 0.550781H6.0375L12.81 20.152L19.6012 0.550781H25.6387L15.8287 26.9433H9.79125ZM29.7617 26.9433V0.550781H35.4298V26.9433H29.7617ZM64.7852 26.9433V0.550781H70.4533V26.9433H64.7852ZM82.492 20.722H92.6695L94.9326 26.9433H100.97L90.5902 0.550781H84.5714L74.1914 26.9433H80.2289L82.492 20.722ZM87.5902 7.15828L90.7926 15.8264H84.3689L87.5902 7.15828Z" fill="url(#paint0_linear_270_1515)"/>
<defs>
<linearGradient id="paint0_linear_270_1515" x1="100.97" y1="-2.8695e-05" x2="-0.987096" y2="4.34356" gradientUnits="userSpaceOnUse">
<stop stop-color="#ECD3AB"/>
<stop offset="0.513383" stop-color="#A4866A"/>
<stop offset="1" stop-color="#FEFCE9"/>
</linearGradient>
</defs>
</svg>
