<svg width="32" height="32" viewBox="0 0 32 32" fill="none" xmlns="http://www.w3.org/2000/svg">
 <g clip-path="url(#ewgrewhrehre)">
                <path fill-rule="evenodd" clip-rule="evenodd" d="M16 32c8.837 0 16-7.163 16-16S24.837 0 16 0 0 7.163 0 16s7.163 16 16 16zM9.838 11.79c.185-.462.637-.79 1.162-.79h10c.525 0 .977.328 1.162.79a.467.467 0 0 0-.18.076L16 16.053l-5.981-4.187a.467.467 0 0 0-.18-.076zm6.43 5.219l5.982-4.187v6.928c0 .688-.563 1.25-1.25 1.25H11c-.688 0-1.25-.563-1.25-1.25v-6.928l5.981 4.187a.469.469 0 0 0 .538 0z" fill="url(#b)"></path>
            </g>
            <defs>
                <linearGradient id="b" x1="32" x2="-.367" y2=".376" gradientUnits="userSpaceOnUse">
                    <stop stop-color="#ECD3AB"></stop>
                    <stop offset=".513" stop-color="#A4866A"></stop>
                    <stop offset="1" stop-color="#FEFCE9"></stop>
                </linearGradient>
                <clipPath id="ewgrewhrehre">
                    <path fill="#fff" d="M0 0h32v32H0z"></path>
                </clipPath>
            </defs>
</svg>
