<svg width="32" height="32" viewBox="0 0 32 32" fill="none" xmlns="http://www.w3.org/2000/svg">
<path fill-rule="evenodd" clip-rule="evenodd" d="M16 28C22.6274 28 28 22.6274 28 16C28 9.37258 22.6274 4 16 4C9.37258 4 4 9.37258 4 16C4 22.6274 9.37258 28 16 28ZM11.2105 16C11.2105 13.3548 13.3548 11.2105 16 11.2105C17.3181 11.2105 18.5101 11.7416 19.3773 12.604C19.8101 13.0344 20.5099 13.0325 20.9404 12.5997C21.3708 12.1669 21.3689 11.4671 20.9361 11.0366C19.6716 9.77909 17.9257 9 16 9C12.134 9 9 12.134 9 16C9 19.866 12.134 23 16 23C19.866 23 23 19.866 23 16C23 15.3896 22.5051 14.8947 21.8947 14.8947H16.7368C16.1264 14.8947 15.6316 15.3896 15.6316 16C15.6316 16.6104 16.1264 17.1053 16.7368 17.1053H20.6613C20.1623 19.2176 18.2648 20.7895 16 20.7895C13.3548 20.7895 11.2105 18.6452 11.2105 16Z" fill="#D9D9D9"/>
<path fill-rule="evenodd" clip-rule="evenodd" d="M16 28C22.6274 28 28 22.6274 28 16C28 9.37258 22.6274 4 16 4C9.37258 4 4 9.37258 4 16C4 22.6274 9.37258 28 16 28ZM11.2105 16C11.2105 13.3548 13.3548 11.2105 16 11.2105C17.3181 11.2105 18.5101 11.7416 19.3773 12.604C19.8101 13.0344 20.5099 13.0325 20.9404 12.5997C21.3708 12.1669 21.3689 11.4671 20.9361 11.0366C19.6716 9.77909 17.9257 9 16 9C12.134 9 9 12.134 9 16C9 19.866 12.134 23 16 23C19.866 23 23 19.866 23 16C23 15.3896 22.5051 14.8947 21.8947 14.8947H16.7368C16.1264 14.8947 15.6316 15.3896 15.6316 16C15.6316 16.6104 16.1264 17.1053 16.7368 17.1053H20.6613C20.1623 19.2176 18.2648 20.7895 16 20.7895C13.3548 20.7895 11.2105 18.6452 11.2105 16Z" fill="url(#paint0_linear_175_2196)"/>
<defs>
<linearGradient id="paint0_linear_175_2196" x1="28" y1="3.99997" x2="3.72466" y2="4.28178" gradientUnits="userSpaceOnUse">
<stop stop-color="#ECD3AB"/>
<stop offset="0.513383" stop-color="#A4866A"/>
<stop offset="1" stop-color="#FEFCE9"/>
</linearGradient>
</defs>
</svg>
