<svg width="32" height="32" viewBox="0 0 32 32" fill="none" xmlns="http://www.w3.org/2000/svg">
<path fill-rule="evenodd" clip-rule="evenodd" d="M16 32C24.8366 32 32 24.8366 32 16C32 7.16344 24.8366 0 16 0C7.16344 0 0 7.16344 0 16C0 24.8366 7.16344 32 16 32ZM13.1567 16.903L10.0331 16.2783C9.93378 16.2584 9.84359 16.2069 9.77599 16.1315C9.7084 16.0562 9.66703 15.9609 9.65808 15.86C9.64914 15.7592 9.67309 15.6581 9.72636 15.572C9.77963 15.4859 9.85935 15.4194 9.9536 15.3823L20.7675 11.134C20.8469 11.1028 20.9333 11.0939 21.0174 11.1082C21.1015 11.1225 21.1801 11.1594 21.2447 11.2151C21.3094 11.2708 21.3576 11.343 21.3842 11.424C21.4108 11.5051 21.4148 11.5919 21.3958 11.675L19.1919 21.2922C19.1737 21.3713 19.1353 21.4444 19.0805 21.5042C19.0256 21.5641 18.9561 21.6087 18.8788 21.6336C18.8015 21.6585 18.7191 21.6629 18.6396 21.6464C18.5601 21.6299 18.4862 21.593 18.4253 21.5394L15.7874 19.218L13.9565 21.0489C13.8909 21.1145 13.8074 21.1591 13.7164 21.1772C13.6255 21.1953 13.5313 21.186 13.4456 21.1505C13.36 21.1151 13.2868 21.055 13.2352 20.9779C13.1837 20.9008 13.1562 20.8102 13.1562 20.7175L13.1567 16.903Z" fill="url(#paint0_linear_339_1510)"/>
<defs>
<linearGradient id="paint0_linear_339_1510" x1="32" y1="-3.33739e-05" x2="-0.367119" y2="0.37571" gradientUnits="userSpaceOnUse">
<stop stop-color="#ECD3AB"/>
<stop offset="0.513383" stop-color="#A4866A"/>
<stop offset="1" stop-color="#FEFCE9"/>
</linearGradient>
</defs>
</svg>
