<?xml version="1.0" standalone="no"?>
<!DOCTYPE svg PUBLIC "-//W3C//DTD SVG 20010904//EN"
 "http://www.w3.org/TR/2001/REC-SVG-20010904/DTD/svg10.dtd">
<svg version="1.0" xmlns="http://www.w3.org/2000/svg"
 width="510.000000pt" height="510.000000pt" viewBox="0 0 510.000000 510.000000"
 preserveAspectRatio="xMidYMid meet">
<metadata>
Created by potrace 1.14, written by Peter Selinger 2001-2017
</metadata>
<g transform="translate(0.000000,510.000000) scale(0.100000,-0.100000)"
fill="#000000" stroke="none">
<path d="M86 5080 c12 -31 120 -322 279 -755 43 -115 82 -221 88 -235 6 -14
11 -29 13 -35 1 -5 50 -138 109 -295 59 -157 108 -289 110 -295 1 -5 5 -17 8
-25 6 -13 51 -135 243 -655 31 -82 84 -226 119 -320 35 -93 102 -276 150 -405
47 -129 90 -244 95 -255 4 -11 52 -139 106 -285 53 -146 102 -276 107 -290 6
-14 11 -29 13 -35 2 -5 16 -46 33 -90 16 -44 73 -197 125 -340 53 -143 103
-276 111 -295 7 -19 48 -129 91 -245 42 -116 78 -212 80 -214 2 -2 265 -5 584
-5 l580 -1 9 25 c5 14 97 261 204 550 108 289 201 541 208 560 7 19 16 44 20
55 17 39 159 424 159 429 0 2 5 17 12 33 6 15 12 33 14 38 2 6 85 228 184 495
100 267 197 526 214 575 18 50 62 169 99 265 36 96 133 360 217 585 83 226
178 480 210 565 58 155 272 730 315 847 13 35 20 64 17 66 -4 2 -266 3 -581 3
l-575 -1 -123 -355 c-67 -195 -156 -452 -197 -570 -206 -594 -352 -1016 -386
-1115 -21 -60 -81 -234 -133 -385 -52 -151 -136 -392 -185 -535 -249 -720
-280 -806 -284 -811 -2 -1 -31 79 -65 179 -54 157 -169 492 -186 537 -3 8 -17
51 -32 95 -35 103 -182 529 -230 665 -20 58 -39 114 -42 125 -2 11 -9 29 -13
40 -5 11 -18 47 -29 80 -11 33 -50 146 -86 250 -37 105 -75 215 -85 245 -10
30 -60 174 -110 320 -51 146 -120 348 -155 450 -55 160 -108 312 -242 700
l-30 85 -582 0 c-520 1 -581 -1 -575 -15z"/>
</g>
</svg>
